<svg preserveAspectRatio="xMidYMid meet" data-bbox="25.3 25.4 2449.2 2449.2" viewBox="25.3 25.4 2449.2 2449.2" xmlns="http://www.w3.org/2000/svg" data-type="color" role="presentation" aria-hidden="true" aria-labelledby="svgcid-n76ksv-nc18o3"><title id="svgcid-n76ksv-nc18o3"></title>
    <g>
        <path d="M2474.5 1250c0 676.328-548.272 1224.6-1224.6 1224.6-676.328 0-1224.6-548.272-1224.6-1224.6C25.3 573.672 573.572 25.4 1249.9 25.4c676.328 0 1224.6 548.272 1224.6 1224.6z" fill="#000000" data-color="1"></path>
        <path d="M1027.6 1250c0-122.9 99.6-222.5 222.4-222.5s222.5 99.6 222.5 222.5-99.6 222.5-222.5 222.5-222.4-99.6-222.4-222.5m-120.3 0c0 189.3 153.4 342.7 342.7 342.7s342.7-153.4 342.7-342.7-153.5-342.7-342.7-342.7-342.7 153.4-342.7 342.7m618.8-356.3c0 44.2 35.8 80.1 80.1 80.1 44.2 0 80.1-35.9 80.1-80.1s-35.8-80.1-80.1-80.1c-44.2.1-80.1 35.9-80.1 80.1m-545.8 899.5c-65.1-3-100.4-13.8-123.9-23-31.2-12.1-53.4-26.6-76.8-49.9-23.3-23.3-37.8-45.6-49.9-76.7-9.2-23.5-20-58.9-23-123.9-3.2-70.4-3.9-91.5-3.9-269.7s.7-199.3 3.9-269.7c3-65.1 13.9-100.4 23-123.9 12.1-31.2 26.6-53.4 49.9-76.8 23.3-23.3 45.6-37.8 76.8-49.9 23.5-9.2 58.9-20 123.9-23 70.4-3.2 91.5-3.9 269.6-3.9 178.2 0 199.3.7 269.7 3.9 65.1 3 100.4 13.9 123.9 23 31.2 12.1 53.4 26.6 76.8 49.9 23.3 23.3 37.8 45.6 49.9 76.8 9.2 23.5 20 58.9 23 123.9 3.2 70.4 3.9 91.5 3.9 269.7s-.6 199.3-3.9 269.7c-3 65.1-13.9 100.4-23 123.9-12.1 31.2-26.6 53.4-49.9 76.7s-45.6 37.8-76.8 49.9c-23.5 9.2-58.9 20-123.9 23-70.4 3.2-91.5 3.9-269.7 3.9-178.1 0-199.2-.6-269.6-3.9m-5.5-1206.5c-71.1 3.2-119.6 14.5-162 31-43.9 17-81.1 39.9-118.2 77-37.1 37.1-59.9 74.3-77 118.2-16.5 42.4-27.8 90.9-31 162-3.3 71.2-4 93.9-4 275.1s.8 204 4 275.1c3.2 71.1 14.5 119.6 31 162 17 43.9 39.8 81.1 77 118.2 37.1 37.1 74.3 59.9 118.2 77 42.5 16.5 90.9 27.8 162 31 71.2 3.2 93.9 4 275.1 4 181.3 0 204-.8 275.1-4 71.1-3.2 119.6-14.5 162-31 43.9-17.1 81.1-39.9 118.2-77 37.1-37.1 59.9-74.3 77-118.2 16.5-42.4 27.8-90.9 31-162 3.2-71.2 4-93.9 4-275.1s-.8-204-4-275.1c-3.2-71.1-14.5-119.6-31-162-17.1-43.9-39.9-81.1-77-118.2-37.1-37.1-74.3-59.9-118.2-77-42.5-16.5-91-27.8-162-31-71.2-3.2-93.9-4-275.1-4-181.2-.1-203.9.7-275.1 4" fill="#ffffff" data-color="2"></path>
    </g>
</svg>