<svg preserveAspectRatio="xMidYMid meet" data-bbox="35.5 35.5 2429 2429" viewBox="35.5 35.5 2429 2429" xmlns="http://www.w3.org/2000/svg" data-type="tint" role="presentation" aria-hidden="true" aria-labelledby="svgcid-bjc3m719csi"><title id="svgcid-bjc3m719csi"></title>
    <g>
        <path d="M2464.5 1250c0 671-543.5 1214.5-1214.5 1214.5S35.5 1921 35.5 1250 579 35.5 1250 35.5 2464.5 579 2464.5 1250z"></path>
        <path d="M1027.3 1806.7c-39.5 0-32.4-15.2-46.6-52.6l-115.4-380.6L1582 926.1l84 22.3-69.8 190.3-568.9 668z" fill="#E0E0E0"></path>
        <path d="M1027.3 1806.7c30.4 0 43.5-14.2 60.7-30.4 26.3-25.3 364.4-354.2 364.4-354.2l-207.5-50.6-192.3 121.5-25.3 303.6v10.1z" fill="#F2F2F2"></path>
        <path d="m1047.6 1497 489.9 361.3c55.7 30.4 96.2 15.2 110.3-51.6l199.4-939.2c20.2-82-31.4-118.4-85-94.1l-1170 451.4c-80 32.4-78.9 76.9-14.2 96.2l300.6 94.1 695.3-438.2c32.4-20.2 62.8-9.1 38.5 13.2L1047.6 1497z" fill="#ffffff"></path>
    </g>
</svg>