<svg preserveAspectRatio="xMidYMid meet" data-bbox="48.1 48.1 2403.8 2403.8" viewBox="48.1 48.1 2403.8 2403.8" xmlns="http://www.w3.org/2000/svg" data-type="color" role="presentation" aria-hidden="true" aria-labelledby="svgcid--221d0c9gfxd3"><title id="svgcid--221d0c9gfxd3"></title>
    <g>
        <path d="M2451.9 1250c0 663.791-538.109 1201.9-1201.9 1201.9S48.1 1913.791 48.1 1250 586.209 48.1 1250 48.1 2451.9 586.209 2451.9 1250z" fill="#000000" data-color="1"></path>
        <path d="M1953 813.9c-51.7 22.9-107.3 38.4-165.6 45.4 59.6-35.7 105.3-92.3 126.8-159.6-55.7 33.1-117.5 57.1-183.2 70-52.6-56-127.6-91-210.5-91-159.3 0-288.4 129.2-288.4 288.6 0 22.1 2.5 44.1 7.4 65.6-239.8-12.1-452.3-126.9-594.6-301.4-24.8 42.7-39 92.3-39 145 0 100.1 51 188.4 128.3 240.1-45.8-1.5-90.6-13.8-130.7-36.1v3.7c0 139.8 99.4 256.4 231.4 282.9-24.8 6.7-50.3 10.1-76 10-18.2 0-36.4-1.7-54.3-5.1 36.7 114.6 143.2 198 269.5 200.3-98.8 77.4-223.2 123.5-358.3 123.5-23.3 0-46.3-1.4-68.9-4 127.7 81.9 279.3 129.6 442.1 129.6 530.7 0 820.8-439.5 820.8-820.7 0-12.4-.3-24.9-.9-37.3 56.4-40.7 105.3-91.5 143.8-149.2l.3-.3z" fill="#ffffff" data-color="2"></path>
    </g>
</svg>